<?xml version="1.0" encoding="utf-8"?>
<!-- Generator: Adobe Illustrator 17.0.0, SVG Export Plug-In . SVG Version: 6.00 Build 0)  -->
<!DOCTYPE svg PUBLIC "-//W3C//DTD SVG 1.1//EN" "http://www.w3.org/Graphics/SVG/1.1/DTD/svg11.dtd">
<svg version="1.1" id="Слой_1" xmlns="http://www.w3.org/2000/svg" xmlns:xlink="http://www.w3.org/1999/xlink" x="0px" y="0px"
	 width="174.356px" height="40px" viewBox="0 0 174.356 40" enable-background="new 0 0 174.356 40" xml:space="preserve">
<polygon display="none" fill="#B4B4B4" points="392.632,123 243,123 243,83 392.632,83 416.547,103 "/>
<polygon display="none" fill="#B4B4B4" points="544.507,123 394.507,123 418.422,103 394.507,83 544.507,83 568.422,103 "/>
<polygon display="none" fill="#B4B4B4" points="696,123 546,123 569.915,103 546,83 696,83 "/>
<g>
	<path fill="#B3B3B3" d="M149.715,2l21.523,18l-21.523,18H2V2h148 M150.441,0H0v40h150.441l23.915-20L150.441,0L150.441,0z"/>
</g>
<g display="none">
	<path display="inline" fill="#B3B3B3" d="M546.764,262l21.405,18l-21.641,18H402.763l19.689-16.466l1.835-1.534l-1.835-1.534
		L402.763,262H547 M547.254,260h-150l23.915,20l-23.915,20h150l23.915-20L547.254,260L547.254,260z"/>
</g>
<g display="none">
	<path display="inline" fill="#B3B3B3" d="M698,262v36H555.731l19.689-16.595l1.834-1.599l-1.834-1.438L555.731,262H698 M700,260
		H550.222l23.915,20l-23.915,20H700V260L700,260z"/>
</g>
<text transform="matrix(1 0 0 1 619.6116 283.2578)" display="none" fill="#B3B3B3" enable-background="new    " font-family="'OpenSans'" font-size="12">3 Step</text>
<text transform="matrix(1 0 0 1 615.2783 106.2201)" display="none" fill="#FFFFFF" enable-background="new    " font-family="'OpenSans'" font-size="12">3 Step</text>
<text transform="matrix(1 0 0 1 464.0212 106.2201)" display="none" fill="#FFFFFF" enable-background="new    " font-family="'OpenSans'" font-size="12">2 Step</text>
<text transform="matrix(1 0 0 1 309.1461 106.2428)" display="none" fill="#FFFFFF" enable-background="new    " font-family="'OpenSans'" font-size="12">1 Step</text>
<text transform="matrix(1 0 0 1 466.7676 283.2201)" display="none" fill="#B3B3B3" enable-background="new    " font-family="'OpenSans'" font-size="12">2 Step</text>
<text transform="matrix(1 0 0 1 66.7051 23.2429)" fill="#B3B3B3" font-family="'OpenSans'" font-size="12">1 Step</text>
</svg>
