<?xml version="1.0" encoding="utf-8"?>
<!-- Generator: Adobe Illustrator 17.0.0, SVG Export Plug-In . SVG Version: 6.00 Build 0)  -->
<!DOCTYPE svg PUBLIC "-//W3C//DTD SVG 1.1//EN" "http://www.w3.org/Graphics/SVG/1.1/DTD/svg11.dtd">
<svg version="1.1" id="Слой_1" xmlns="http://www.w3.org/2000/svg" xmlns:xlink="http://www.w3.org/1999/xlink" x="0px" y="0px"
	 width="149.778px" height="40px" viewBox="0 0 149.778 40" enable-background="new 0 0 149.778 40" xml:space="preserve">
<g display="none">
	<path display="inline" fill="#B3B3B3" d="M543.137,262l21.592,18l-21.455,18H399.509l19.689-16.466l1.835-1.534l-1.835-1.534
		L399.509,262H543 M544,260H394l23.915,20L394,300h150l23.915-20L544,260L544,260z"/>
</g>
<g>
	<path fill="#B3B3B3" d="M147.778,2v36H5.509l19.689-16.595l1.834-1.599l-1.834-1.438L5.509,2H147.778 M149.778,0H0l23.915,20L0,40
		h149.778V0L149.778,0z"/>
</g>
<text transform="matrix(1 0 0 1 69.3896 23.2578)" fill="#B3B3B3" font-family="'OpenSans',sans-serif" font-size="12">3 Step</text>
</svg>
