<?xml version="1.0" encoding="utf-8"?>
<!-- Generator: Adobe Illustrator 19.0.1, SVG Export Plug-In . SVG Version: 6.00 Build 0)  -->
<svg version="1.1" id="Слой_1" xmlns="http://www.w3.org/2000/svg" xmlns:xlink="http://www.w3.org/1999/xlink" x="0px" y="0px"
	 viewBox="-67.6 7.6 126.3 126.1" style="enable-background:new -67.6 7.6 126.3 126.1;" xml:space="preserve">
<style type="text/css">
	.st0{fill:#FFFFFF;}
</style>
<path class="st0" d="M45.1,48c-0.3-2-2-3.4-4-3.4h-28V25.2c0-9.7-7.9-17.6-17.6-17.6s-17.6,7.9-17.6,17.6v19.4h-28
	c-2,0-3.7,1.4-4,3.4l-13.4,81c-0.2,1.2,0.1,2.4,0.9,3.3c0.8,0.9,1.9,1.4,3.1,1.4h118c0,0,0,0,0.1,0c2.3,0,4.1-1.8,4.1-4.1
	c0-0.5-0.1-0.9-0.2-1.3C58.5,128.3,45.1,48,45.1,48z M-13.9,25.2c0-5.2,4.2-9.4,9.4-9.4s9.4,4.2,9.4,9.4v19.4h-18.8
	C-13.9,44.6-13.9,25.2-13.9,25.2z M-58.7,125.6l12.1-72.8h24.5v12.9c0,2.3,1.8,4.1,4.1,4.1s4.1-1.8,4.1-4.1V52.8H4.9v12.9
	c0,2.3,1.8,4.1,4.1,4.1c2.3,0,4.1-1.8,4.1-4.1V52.8h24.5l12.1,72.8H-58.7L-58.7,125.6z"/>
</svg>
