<svg version="1.1" id="Слой_1" xmlns="http://www.w3.org/2000/svg" xmlns:xlink="http://www.w3.org/1999/xlink" x="0px" y="0px"
	 width="52px" height="57.667px" viewBox="0 0 52 57.667" enable-background="new 0 0 52 57.667" xml:space="preserve">
<rect x="-0.333" y="0.667" display="none" width="52" height="57"/>
<g id="Search" display="none">
	<circle display="inline" fill="none" stroke="#FFFFFF" stroke-width="3" stroke-miterlimit="10" cx="23.667" cy="32.667" r="15"/>
	
		<line display="inline" fill="none" stroke="#FFFFFF" stroke-width="3" stroke-miterlimit="10" x1="33.878" y1="43.65" x2="44.14" y2="54.728"/>
</g>
<g id="Cart" display="none">
	<polygon display="inline" fill="none" stroke="#FFFFFF" stroke-width="3" stroke-miterlimit="10" points="42.452,20.167 
		6.968,20.167 4.167,53.167 45.253,53.167 	"/>
	<path display="inline" fill="none" stroke="#FFFFFF" stroke-width="3" stroke-miterlimit="10" d="M16.306,30.652l0.934-20.076
		c0-4.126,3.345-7.47,7.47-7.47l0,0c4.126,0,7.47,3.345,7.47,7.47l0.934,20.076"/>
	<circle display="inline" fill="#FFFFFF" cx="15.839" cy="31.663" r="2.801"/>
	<circle display="inline" fill="#FFFFFF" cx="33.581" cy="31.73" r="2.801"/>
</g>
<g id="Logo" display="none">
	
		<text transform="matrix(1 0 0 1 5.0838 41.3406)" display="inline" fill="#FFFFFF" font-family="'Barkentina'" font-size="24.3349">AXI SHOP</text>
</g>
<g id="Like" display="none">
	<path display="inline" fill="none" stroke="#FFFFFF" stroke-width="3" stroke-miterlimit="10" d="M4.546,23.986
		c0.82-2.544,1.756-5.013,3.848-6.852c4.639-4.076,10.878-4.201,15.677-0.285c0.597,0.487,1.173,1.001,1.52,1.298
		c2.23-1.254,4.209-2.764,6.443-3.542c4.983-1.736,10.379,0.336,13.276,4.718c2.846,4.305,2.628,9.994-0.768,13.96
		c-2.092,2.443-4.451,4.658-6.72,6.946c-3.367,3.394-6.767,6.756-10.138,10.146c-1.06,1.066-2.124,1.402-3.308,0.218
		C18.912,45.129,13.327,39.779,8.061,34.13c-1.621-1.738-2.368-4.291-3.515-6.471C4.546,26.435,4.546,25.211,4.546,23.986z" />
</g>
<g>
	<path d="M14.4,29.182c1.469-0.532,2.043,0.506,3.349,1.459c1.12,0.816,2.495,1.093,2.759,0.391
		c0.421-1.128,0.485-1.695,0.794-3.283c0.246-1.262,0.406-4.2,0.51-6.42c0.129-2.678,0.298-4.225,1.596-4.095
		c1.245,0.123,1.171,0.826,0.95,4.448c-0.17,2.775,0.026,4.795,0.319,4.792c0.292-0.002,0.351-2.538,0.733-5.057
		c0.691-4.512,1.065-5.17,2.191-4.951c0.973,0.189,1.06,0.863,0.299,5.435c-0.394,2.375-0.614,4.889-0.415,4.927
		c0.303,0.059,0.99-2.204,1.433-4.715c0.823-4.697,1.576-4.181,2.073-4.084c0.488,0.095,1.315,0.397,0.416,4.852
		c-0.521,2.605-0.946,4.86-0.454,4.956c0.221,0.043,0.986-1.99,1.384-4.035c0.666-3.422,1.321-3.295,1.845-3.193
		c0.519,0.101,0.669,0.782,0.034,4.21c-0.508,2.732-1.572,6.51-2.026,8.842c-1.103,5.665-2.953,5.365-3.327,7.287l-7.698-1.498
		c-0.118-0.59-0.58-1.008-1.591-2.542c-1.014-1.545-3.412-4.591-5.587-5.52C12.534,30.769,13.495,29.512,14.4,29.182L14.4,29.182z
		 M14.4,29.182" fill="#00B6CD"/>
</g>
<circle fill="none" stroke="#00B6CD" stroke-miterlimit="10" cx="26.167" cy="28.5" r="25"/>
</svg>
