<svg version="1.1" id="Слой_1" xmlns="http://www.w3.org/2000/svg" xmlns:xlink="http://www.w3.org/1999/xlink" x="0px" y="0px"
	 width="52px" height="57.667px" viewBox="0 0 52 57.667" enable-background="new 0 0 52 57.667" xml:space="preserve">
<rect x="-0.333" y="0.667" display="none" width="52" height="57"/>
<g id="Search" display="none">
	<circle display="inline" fill="00B6CD" stroke="#FFFFFF" stroke-width="3" stroke-miterlimit="10" cx="23.667" cy="32.667" r="15"/>
	
		<line display="inline" fill="00B6CD" stroke="#FFFFFF" stroke-width="3" stroke-miterlimit="10" x1="33.878" y1="43.65" x2="44.14" y2="54.728"/>
</g>
<g id="Cart" display="none">
	<polygon display="inline" fill="00B6CD" stroke="#FFFFFF" stroke-width="3" stroke-miterlimit="10" points="42.452,20.167 
		6.968,20.167 4.167,53.167 45.253,53.167 	"/>
	<path display="inline" fill="00B6CD" stroke="#FFFFFF" stroke-width="3" stroke-miterlimit="10" d="M16.306,30.652l0.934-20.076
		c0-4.126,3.345-7.47,7.47-7.47l0,0c4.126,0,7.47,3.345,7.47,7.47l0.934,20.076"/>
	<circle display="inline" fill="#FFFFFF" cx="15.839" cy="31.663" r="2.801"/>
	<circle display="inline" fill="#FFFFFF" cx="33.581" cy="31.73" r="2.801"/>
</g>
<g id="Logo" display="none">
	
		<text transform="matrix(1 0 0 1 5.0838 41.3406)" display="inline" fill="#FFFFFF" font-family="'Barkentina'" font-size="24.3349">AXI SHOP</text>
</g>
<g id="Like" display="none">
	<path display="inline" fill="00B6CD" stroke="#FFFFFF" stroke-width="3" stroke-miterlimit="10" d="M4.546,23.986
		c0.82-2.544,1.756-5.013,3.848-6.852c4.639-4.076,10.878-4.201,15.677-0.285c0.597,0.487,1.173,1.001,1.52,1.298
		c2.23-1.254,4.209-2.764,6.443-3.542c4.983-1.736,10.379,0.336,13.276,4.718c2.846,4.305,2.628,9.994-0.768,13.96
		c-2.092,2.443-4.451,4.658-6.72,6.946c-3.367,3.394-6.767,6.756-10.138,10.146c-1.06,1.066-2.124,1.402-3.308,0.218
		C18.912,45.129,13.327,39.779,8.061,34.13c-1.621-1.738-2.368-4.291-3.515-6.471C4.546,26.435,4.546,25.211,4.546,23.986z"/>
</g>
<g display="none">
	<path display="inline"  d="M85.996,32.165c1.204-0.721,1.888,0.096,3.204,0.712c1.127,0.528,2.388,0.536,2.5-0.129
		c0.177-1.067,0.137-1.578,0.137-3.031c0-1.155-0.363-3.773-0.652-5.748c-0.346-2.384-0.463-3.777,0.705-3.885
		c1.119-0.105,1.175,0.528,1.601,3.759c0.327,2.476,0.846,4.223,1.104,4.171c0.258-0.052-0.126-2.298-0.222-4.585
		c-0.165-4.098,0.052-4.742,1.082-4.742c0.89,0,1.083,0.579,1.196,4.742c0.06,2.162,0.298,4.416,0.479,4.416
		c0.277,0,0.495-2.114,0.454-4.404c-0.08-4.283,0.672-3.957,1.127-3.957c0.446,0,1.227,0.125,1.2,4.207
		c-0.012,2.387,0,4.448,0.45,4.448c0.202,0,0.528-1.924,0.528-3.796c0-3.132,0.6-3.132,1.079-3.132c0.475,0,0.725,0.575,0.752,3.707
		c0.021,2.496-0.269,6.01-0.269,8.144c0,5.185-1.683,5.237-1.683,6.996h-7.045c-0.205-0.5-0.684-0.789-1.84-1.968
		c-1.159-1.188-3.797-3.463-5.874-3.909C84.623,33.884,85.255,32.612,85.996,32.165L85.996,32.165z M85.996,32.165" fill="00B6CD" />
</g>
<g>
	<path  d="M15.922,29.525l9.482,9.482c0.201,0.201,0.472,0.311,0.753,0.311c0.281,0,0.552-0.111,0.753-0.311l9.467-9.467
		c1.315-1.315,2.042-3.065,2.042-4.922c0-1.861-0.722-3.612-2.037-4.927c-1.314-1.315-3.06-2.037-4.922-2.037
		c-1.861,0-3.607,0.728-4.927,2.042l-0.381,0.381l-0.391-0.391c-1.319-1.319-3.07-2.042-4.932-2.042
		c-1.856,0-3.602,0.722-4.917,2.037c-1.314,1.315-2.037,3.065-2.037,4.927C13.88,26.464,14.607,28.21,15.922,29.525L15.922,29.525z
		 M15.922,29.525" fill="#00B6CD"  />
</g>
<g display="none">
	<g display="inline">
		<defs>
			<rect id="SVGID_1_" x="62.411" y="19.502" width="22.982" height="22.982" fill="#00B6CD"/>
		</defs>
		<clipPath id="SVGID_2_">
			<use xlink:href="#SVGID_1_"  overflow="visible" fill="00B6CD"/>
		</clipPath>
		<path clip-path="url(#SVGID_2_)" fill="#00B6CD" d="M74.25,19.885l2.88,6.806l7.362,0.63c0.509,0.045,0.72,0.686,0.328,1.02l-5.582,4.84
			l1.671,7.198c0.119,0.499-0.425,0.895-0.862,0.628l-6.33-3.819l-6.33,3.819c-0.437,0.261-0.981-0.129-0.862-0.628l1.671-7.198
			l-5.587-4.84c-0.386-0.339-0.176-0.975,0.334-1.02l7.362-0.63l2.88-6.806C73.383,19.409,74.051,19.409,74.25,19.885L74.25,19.885z
			 M74.25,19.885"/>
	</g>
</g>
<circle fill="none" stroke="#00B6CD" stroke-miterlimit="10" cx="26.167" cy="28.5" r="25"/>
</svg>
