<?xml version="1.0" encoding="utf-8"?>
<!-- Generator: Adobe Illustrator 19.0.1, SVG Export Plug-In . SVG Version: 6.00 Build 0)  -->
<svg version="1.1" id="Layer_1" xmlns="http://www.w3.org/2000/svg" xmlns:xlink="http://www.w3.org/1999/xlink" x="0px" y="0px"
	 viewBox="-117.5 59.7 33.1 33.1" style="enable-background:new -117.5 59.7 33.1 33.1;" xml:space="preserve">
<style type="text/css">
	.st0{fill:#FFFFFF;stroke:#FFFFFF;}
</style>
<g id="search_1_">
	<path class="st0" d="M-97,60.2c-6.6,0-12,5.4-12,12c0,2,0.5,3.9,1.4,5.6l-8.3,8.3l0,0c-0.7,0.6-1.1,1.5-1.1,2.5
		c0,1.9,1.6,3.5,3.5,3.5c1,0,1.9-0.4,2.5-1.1l0,0l8.3-8.3c1.7,0.9,3.6,1.4,5.6,1.4c6.6,0,12-5.4,12-12S-90.4,60.2-97,60.2z
		 M-112.2,89.9c-0.3,0.3-0.8,0.5-1.3,0.5c-1,0-1.8-0.8-1.8-1.8c0-0.5,0.2-0.9,0.5-1.3l0,0l8.1-8.1c0.7,1,1.5,1.8,2.5,2.5
		L-112.2,89.9z M-97,82.2c-5.5,0-10-4.5-10-10c0-5.5,4.5-10,10-10c5.5,0,10,4.5,10,10C-87,77.8-91.5,82.2-97,82.2z"/>
	<path class="st0" d="M-96.5,79.7c3.9,0,7-3.1,7-7c0-0.3-0.2-0.5-0.5-0.5s-0.5,0.2-0.5,0.5c0,3.3-2.7,6-6,6c-0.3,0-0.5,0.2-0.5,0.5
		S-96.8,79.7-96.5,79.7z"/>
</g>
</svg>
